<svg width="286" height="160" viewBox="0 0 286 160" fill="none" xmlns="http://www.w3.org/2000/svg">
<path d="M73.2049 87.7808L53.6425 95.9398L62.166 100.959L56.4303 110.7L77.2103 103.258L67.4691 97.522L73.2049 87.7808Z" stroke="#D1E7DD" stroke-miterlimit="10" stroke-linecap="round" stroke-linejoin="round"/>
<path d="M37.2441 76.4453L51.8558 85.0489L41.8183 102.096L27.2066 93.4923L37.2441 76.4453Z" stroke="#D1E7DD" stroke-miterlimit="10" stroke-linecap="round" stroke-linejoin="round"/>
<path d="M45.416 68.1367L55.1572 73.8724L49.4214 83.6136L39.6803 77.8779L45.416 68.1367Z" stroke="#D1E7DD" stroke-miterlimit="10" stroke-linecap="round" stroke-linejoin="round"/>
<path d="M39.2238 139.921C45.9487 143.881 54.6102 141.639 58.5699 134.914C62.5296 128.189 60.288 119.528 53.5631 115.568C46.8383 111.608 38.1768 113.85 34.2171 120.575C30.2574 127.3 32.499 135.961 39.2238 139.921Z" stroke="#D1E7DD" stroke-miterlimit="10" stroke-linecap="round" stroke-linejoin="round"/>
<path d="M80.6465 108.559L90.3876 114.294L83.218 126.471L73.4768 120.735L80.6465 108.559Z" stroke="#D1E7DD" stroke-miterlimit="10" stroke-linecap="round" stroke-linejoin="round"/>
<path d="M87.3848 102.688L92.2553 105.555L87.9535 112.861L83.083 109.993L87.3848 102.688Z" stroke="#D1E7DD" stroke-miterlimit="10" stroke-linecap="round" stroke-linejoin="round"/>
<path d="M78.3488 123.604L74.047 130.91C66.9189 143.015 51.3298 147.05 39.224 139.922C27.1182 132.794 23.0838 117.205 30.2119 105.099L34.5137 97.793" stroke="#D1E7DD" stroke-miterlimit="10" stroke-linecap="round" stroke-linejoin="round"/>
<g clip-path="url(#clip0_2101_34310)">
<path d="M80.9711 68.0025L116.761 49.727C117.793 49.1999 119.264 49.1871 120.661 49.628C122.057 50.0687 123.257 50.9244 123.799 51.9865L160.173 123.22C160.729 124.309 160.729 125.778 160.274 127.153C159.818 128.529 158.942 129.705 157.878 130.249L122.088 148.524C121.024 149.068 119.539 149.051 118.141 148.589C116.741 148.127 115.558 147.26 115.048 146.262L78.6744 75.0288C78.1341 73.9708 78.1612 72.489 78.6339 71.0905C79.1071 69.6904 79.9818 68.5077 80.9711 68.0025Z" stroke="#D1E7DD"/>
<path fill-rule="evenodd" clip-rule="evenodd" d="M110.384 74.8746C109.687 75.263 109.019 76.082 108.771 76.8531C108.545 77.5396 108.514 78.4697 108.977 79.1119C109.799 78.7594 110.403 77.9474 110.636 77.1841C110.865 76.4221 110.836 75.5388 110.384 74.8746ZM114.187 82.5553C112.644 79.5329 114.748 78.2949 114.786 78.2241C114.337 77.9869 113.839 77.8571 113.331 77.8451C112.822 77.8331 112.318 77.9391 111.856 78.1548C110.825 78.553 110.24 79.7049 109.744 79.9582C109.251 80.2101 108.197 80.0395 107.392 80.4699C106.866 80.757 106.423 81.1758 106.108 81.6848C105.794 82.1939 105.617 82.7755 105.596 83.3723C105.471 85.8609 107.748 88.2874 109.625 89.2922C110.544 89.7853 111.608 90.3228 112.416 89.8681C113.198 89.4303 113.253 88.7929 114.215 88.302C115.176 87.8112 115.707 88.1881 116.544 87.7446C117.391 87.2895 117.543 86.2495 117.678 85.2186C117.831 84.0239 117.642 83.0399 117.635 82.9888C117.61 82.9916 115.158 84.4558 114.187 82.5553Z" fill="#D1E7DD"/>
<path d="M91.0511 75.1188C92.463 74.3979 93.0259 72.6744 92.3084 71.2693C91.591 69.8642 89.8648 69.3096 88.4529 70.0305C87.041 70.7515 86.4781 72.475 87.1956 73.8801C87.9131 75.2852 89.6393 75.8398 91.0511 75.1188Z" fill="#A3CFBB"/>
<path d="M98.7211 71.2047C100.133 70.4838 100.696 68.7603 99.9784 67.3552C99.2609 65.9501 97.5347 65.3955 96.1228 66.1165C94.711 66.8374 94.148 68.5609 94.8655 69.966C95.583 71.3711 97.3092 71.9257 98.7211 71.2047Z" fill="white"/>
</g>
<g clip-path="url(#clip1_2101_34310)">
<path d="M210.751 145.618V102.285C210.751 100.561 210.066 98.9079 208.847 97.689C207.628 96.47 205.975 95.7852 204.251 95.7852H169.584C167.86 95.7852 166.207 96.47 164.988 97.689C163.769 98.9079 163.084 100.561 163.084 102.285V145.618" stroke="#D1E7DD" stroke-miterlimit="10" stroke-linecap="round" stroke-linejoin="round"/>
<path d="M173.917 108.786C175.113 108.786 176.083 107.816 176.083 106.62C176.083 105.423 175.113 104.453 173.917 104.453C172.72 104.453 171.75 105.423 171.75 106.62C171.75 107.816 172.72 108.786 173.917 108.786Z" stroke="#D1E7DD" stroke-miterlimit="10" stroke-linecap="round" stroke-linejoin="round"/>
<path d="M182.585 108.786C183.781 108.786 184.751 107.816 184.751 106.62C184.751 105.423 183.781 104.453 182.585 104.453C181.388 104.453 180.418 105.423 180.418 106.62C180.418 107.816 181.388 108.786 182.585 108.786Z" stroke="#D1E7DD" stroke-miterlimit="10" stroke-linecap="round" stroke-linejoin="round"/>
<path d="M189.085 106.617C189.085 108.341 188.4 109.994 187.181 111.213C185.962 112.432 184.309 113.117 182.585 113.117H173.918C173.064 113.117 172.219 112.949 171.431 112.622C170.642 112.296 169.925 111.817 169.322 111.213C168.718 110.61 168.239 109.893 167.913 109.105C167.586 108.316 167.418 107.471 167.418 106.617C167.418 105.764 167.586 104.918 167.913 104.13C168.239 103.341 168.718 102.625 169.322 102.021C169.925 101.417 170.642 100.939 171.431 100.612C172.219 100.285 173.064 100.117 173.918 100.117H182.585C184.309 100.117 185.962 100.802 187.181 102.021C188.4 103.24 189.085 104.893 189.085 106.617Z" stroke="#D1E7DD" stroke-miterlimit="10" stroke-linecap="round" stroke-linejoin="round"/>
<path d="M194.501 107.702C195.1 107.702 195.585 107.217 195.585 106.618C195.585 106.02 195.1 105.535 194.501 105.535C193.903 105.535 193.418 106.02 193.418 106.618C193.418 107.217 193.903 107.702 194.501 107.702Z" stroke="#D1E7DD" stroke-miterlimit="10" stroke-linecap="round" stroke-linejoin="round"/>
<path d="M189.824 134.132C189.811 132.785 190.922 132.139 190.974 132.107C190.348 131.192 189.375 131.067 189.026 131.051C188.199 130.967 187.41 131.539 186.987 131.539C186.569 131.539 185.919 131.062 185.232 131.075C184.781 131.088 184.341 131.218 183.955 131.452C183.569 131.686 183.25 132.016 183.029 132.41C182.091 134.039 182.791 136.451 183.705 137.772C184.151 138.418 184.684 139.144 185.384 139.118C186.058 139.092 186.314 138.682 187.128 138.682C187.943 138.682 188.173 139.118 188.885 139.105C189.611 139.092 190.071 138.446 190.515 137.798C191.028 137.047 191.238 136.323 191.251 136.284C191.234 136.277 189.837 135.742 189.824 134.132Z" stroke="#D1E7DD" stroke-miterlimit="10" stroke-linejoin="round"/>
<path d="M188 128.286L188.977 127.309" stroke="#D1E7DD" stroke-miterlimit="10" stroke-linecap="round" stroke-linejoin="round"/>
</g>
<g clip-path="url(#clip2_2101_34310)">
<path d="M43.7199 10.589C40.9068 8.1906 37.3755 7.31775 34.2071 7.87478L26.396 17.0368C26.3487 20.2518 27.7691 23.6005 30.5823 25.9988C32.4115 27.5631 34.6694 28.5402 37.0619 28.8028L31.3397 35.5147L34.7641 38.4342L45.7122 25.5926C49.3396 21.3378 48.4491 14.6208 43.7199 10.589ZM65.9787 29.5656C68.7918 31.9639 70.2123 35.3126 70.1635 38.5293L62.3524 47.6913C59.184 48.2484 55.6527 47.3755 52.8396 44.9772C51.0056 43.4184 49.6837 41.3435 49.0459 39.0227L43.3237 45.7346L39.8993 42.8151L50.8488 29.9718C54.4762 25.717 61.2495 25.5338 65.9787 29.5656Z" stroke="#D1E7DD" stroke-miterlimit="10" stroke-linecap="round" stroke-linejoin="round"/>
<path d="M30.6924 67.4882L11.8581 51.4311C10.0417 49.8825 8.91484 47.6758 8.72545 45.2963C8.53606 42.9169 9.29965 40.5597 10.8482 38.7433L21.0664 26.7578L53.5984 54.4929L43.3802 66.4783C41.8316 68.2947 39.6249 69.4216 37.2455 69.611C34.8661 69.8004 32.5089 69.0368 30.6924 67.4882Z" stroke="#D1E7DD" stroke-miterlimit="10" stroke-linecap="round" stroke-linejoin="round"/>
<path d="M35.2681 44.7771L23.4364 46.5168L27.717 50.1662L23.3377 55.3028L36.0255 54.2929L30.8889 49.9137L35.2681 44.7771Z" stroke="#D1E7DD" stroke-miterlimit="10" stroke-linecap="round" stroke-linejoin="round"/>
<path d="M36.4717 14.755C36.1311 14.4646 35.6891 14.3214 35.243 14.3569C34.7968 14.3924 34.3831 14.6037 34.0927 14.9443C33.8023 15.2849 33.6592 15.7269 33.6947 16.173C33.7302 16.6192 33.9415 17.0329 34.282 17.3233C34.6226 17.6136 35.0646 17.7568 35.5107 17.7213C35.9569 17.6858 36.3707 17.4745 36.661 17.1339C36.9514 16.7933 37.0945 16.3514 37.059 15.9052C37.0235 15.4591 36.8122 15.0453 36.4717 14.755ZM63.0109 37.3809C62.6703 37.0906 62.2284 36.9474 61.7822 36.9829C61.3361 37.0184 60.9223 37.2297 60.6319 37.5703C60.3416 37.9108 60.1984 38.3528 60.2339 38.799C60.2694 39.2451 60.4807 39.6589 60.8213 39.9492C61.1619 40.2396 61.6039 40.3828 62.05 40.3473C62.4961 40.3117 62.9099 40.1005 63.2003 39.7599C63.4906 39.4193 63.6338 38.9773 63.5983 38.5312C63.5628 38.085 63.3515 37.6713 63.0109 37.3809Z" fill="#D1E7DD"/>
</g>
<g clip-path="url(#clip3_2101_34310)">
<path d="M250.46 124.272L250.34 124.423L250.352 124.616C250.642 129.188 248.917 133.835 245.248 137.129C241.58 140.423 236.776 141.64 232.261 140.862L232.071 140.829L231.908 140.933L222.47 146.935L212.345 135.661L219.324 126.92L219.445 126.769L219.432 126.577C219.143 122.004 220.868 117.358 224.536 114.064C228.204 110.77 233.009 109.553 237.524 110.33L237.714 110.363L237.877 110.26L247.315 104.258L257.439 115.532L250.46 124.272ZM244.193 117.244C239.578 112.106 231.679 111.682 226.54 116.296C221.402 120.91 220.978 128.81 225.592 133.948C230.206 139.086 238.106 139.511 243.244 134.897C248.382 130.282 248.807 122.383 244.193 117.244Z" stroke="#D1E7DD"/>
</g>
<g clip-path="url(#clip4_2101_34310)">
<path d="M85.8828 19.278L86.0559 19.3634L86.2416 19.3104C90.6466 18.0514 95.5541 18.7447 99.5554 21.6252C103.557 24.5057 105.771 28.9396 105.975 33.5165L105.984 33.7094L106.12 33.8464L113.998 41.7855L105.145 54.0833L95.1164 49.1313L94.9433 49.0458L94.7576 49.0989C90.3526 50.3579 85.4451 49.6646 81.4438 46.7841C77.4425 43.9036 75.2278 39.4697 75.0239 34.8928L75.0154 34.6999L74.8793 34.5629L67.001 26.6238L75.8541 14.326L85.8828 19.278ZM80.3549 26.9016C76.32 32.5064 77.5917 40.3145 83.1965 44.3494C88.8014 48.3842 96.6094 47.1126 100.644 41.5077C104.679 35.9029 103.408 28.0948 97.8027 24.0599C92.1978 20.0251 84.3898 21.2967 80.3549 26.9016Z" stroke="#D1E7DD"/>
</g>
<g clip-path="url(#clip5_2101_34310)">
<path d="M169.015 82.6569L169.803 84.2198C170.429 85.4633 170.536 86.9047 170.099 88.227C169.663 89.5492 168.719 90.644 167.476 91.2704C166.232 91.8968 164.791 92.0036 163.469 91.5673C162.146 91.1309 161.052 90.1872 160.425 88.9437L160.032 88.1622C156.481 81.1136 142.838 85.1491 138.081 75.7061C133.539 66.6913 138.613 60.7414 143.897 58.0795C145.232 57.4074 146.685 57.0047 148.175 56.8944C149.664 56.784 151.161 56.9682 152.58 57.4363C153.998 57.9044 155.311 58.6473 156.442 59.6227C157.574 60.598 158.502 61.7867 159.174 63.1207" stroke="#D1E7DD" stroke-miterlimit="10" stroke-linecap="round" stroke-linejoin="round"/>
<path d="M154.529 63.5012C153.108 62.4344 151.368 61.8795 149.592 61.9264C147.816 61.9734 146.108 62.6195 144.746 63.7599C143.384 64.9002 142.447 66.4677 142.088 68.2077C141.729 69.9477 141.969 71.758 142.769 73.3444C146.312 80.3774 157.652 77.6041 160.014 82.2928C161.358 84.9622 164.32 83.0625 164.32 83.0625C164.32 83.0625 166.403 81.3611 165.484 79.5372M148.991 71.1899C148.721 69.5355 148.932 67.8386 149.599 66.3005C150.265 64.7625 151.358 63.4478 152.749 62.5126" stroke="#D1E7DD" stroke-miterlimit="10" stroke-linecap="round" stroke-linejoin="round"/>
<path d="M154.038 68.4513C153.318 70.6323 153.515 72.8316 154.366 74.5485L161.778 76.9947C163.484 76.1216 164.951 74.4698 165.67 72.2888C165.895 71.585 166.029 70.8557 166.07 70.1182L177.158 73.7773C177.487 73.8923 177.836 73.9406 178.184 73.9193C178.532 73.8981 178.872 73.8078 179.185 73.6537C179.497 73.4996 179.776 73.2848 180.005 73.0218C180.234 72.7588 180.408 72.4528 180.517 72.1218C180.626 71.7908 180.668 71.4414 180.641 71.0939C180.614 70.7464 180.518 70.4078 180.358 70.0979C180.199 69.788 179.979 69.513 179.712 69.2888C179.445 69.0647 179.136 68.896 178.803 68.7925L162.186 63.3061C158.973 62.2459 155.325 64.5499 154.038 68.4513Z" stroke="#D1E7DD" stroke-miterlimit="10" stroke-linecap="round" stroke-linejoin="round"/>
<path d="M159.194 69.9681C158.883 70.1247 158.647 70.3984 158.538 70.729C158.429 71.0595 158.455 71.4199 158.612 71.7308C158.769 72.0416 159.042 72.2776 159.373 72.3867C159.703 72.4957 160.064 72.4691 160.375 72.3124C160.686 72.1558 160.921 71.8821 161.031 71.5516C161.14 71.221 161.113 70.8607 160.956 70.5498C160.8 70.2389 160.526 70.003 160.195 69.8939C159.865 69.7848 159.505 69.8115 159.194 69.9681Z" fill="#D1E7DD"/>
</g>
<path d="M261.858 119.849C261.748 119.684 261.642 119.505 261.543 119.31C260.831 117.902 260.681 116.085 261.144 114.304C261.371 113.406 261.798 112.539 262.425 111.702C263.053 110.873 263.728 110.248 264.451 109.835C264.572 110.02 264.68 110.211 264.778 110.406C265.52 111.873 265.678 113.513 265.253 115.32C265.059 116.118 264.785 116.848 264.426 117.487M281.957 130.372C282.033 131.621 281.986 132.829 281.818 134.003C281.588 135.603 281.325 136.764 281.032 137.483C280.6 138.638 279.927 139.458 279.009 139.949C278.343 140.286 277.443 140.502 276.313 140.589C275.18 140.679 274.222 140.925 273.433 141.324C272.606 141.742 271.815 142.38 271.06 143.243C270.305 144.11 269.641 144.697 269.066 145.013C268.195 145.501 267.109 145.557 265.806 145.178C264.991 144.97 263.855 144.48 262.402 143.707C260.845 142.884 259.346 141.775 257.904 140.376C256.352 138.862 255.142 137.248 254.274 135.531C253.281 133.565 252.847 131.655 252.978 129.805C253.068 128.327 253.5 126.978 254.276 125.756C255.053 124.534 256.082 123.59 257.363 122.916C258.071 122.558 259.109 122.309 260.479 122.158C261.846 122.01 262.695 121.856 263.018 121.692C263.26 121.57 263.95 120.9 265.081 119.686C266.155 118.548 267.165 117.791 268.112 117.41C270.674 116.365 273.015 116.403 275.131 117.534C273.606 119.985 273.464 122.408 274.7 124.801C275.666 126.663 277.13 127.878 279.086 128.442C279.98 128.711 280.878 128.815 281.786 128.751C281.863 129.306 281.92 129.845 281.957 130.372Z" stroke="#D1E7DD" stroke-linecap="round" stroke-linejoin="round"/>
<path d="M203.079 85.4435L221.922 108.788C222.962 110.077 224.763 110.35 225.944 109.397L235.937 101.331C237.117 100.378 237.231 98.5605 236.19 97.2712L217.348 73.9266C216.308 72.6373 214.507 72.3647 213.326 73.3177L203.333 81.3835C202.152 82.3365 202.039 84.1542 203.079 85.4435ZM201.654 86.5939C199.92 84.4451 200.109 81.4155 202.077 79.8272L212.07 71.7614C214.038 70.1731 217.039 70.6274 218.773 72.7762L237.616 96.1208C239.35 98.2696 239.161 101.299 237.193 102.888L227.2 110.953C225.232 112.542 222.231 112.087 220.496 109.938L201.654 86.5939ZM226.995 103.408C226.301 102.549 226.377 101.337 227.164 100.702C227.95 100.067 229.152 100.249 229.845 101.108C230.538 101.967 230.463 103.179 229.676 103.814C228.889 104.449 227.688 104.267 226.995 103.408Z" fill="#D1E7DD"/>
<defs>
<clipPath id="clip0_2101_34310">
<rect width="51.6677" height="91.412" fill="white" transform="translate(75.6309 70.168) rotate(-27.0503)"/>
</clipPath>
<clipPath id="clip1_2101_34310">
<rect width="52" height="52" fill="white" transform="translate(162 94.7031)"/>
</clipPath>
<clipPath id="clip2_2101_34310">
<rect width="54" height="54" fill="white" transform="translate(35.0332 1.70312) rotate(40.4491)"/>
</clipPath>
<clipPath id="clip3_2101_34310">
<rect width="48" height="48" fill="white" transform="translate(236.713 91.7031) rotate(48.0759)"/>
</clipPath>
<clipPath id="clip4_2101_34310">
<rect width="48" height="48" fill="white" transform="translate(57 39.6602) rotate(-54.2503)"/>
</clipPath>
<clipPath id="clip5_2101_34310">
<rect width="42" height="42" fill="white" transform="translate(131 63.5977) rotate(-26.737)"/>
</clipPath>
</defs>
</svg>
