<svg width="25" height="28" viewBox="0 0 25 28" fill="none" xmlns="http://www.w3.org/2000/svg">
<path id="Vector" d="M23.9962 21.8205C23.581 22.7715 23.0681 23.6782 22.4654 24.5267C21.6602 25.6567 20.999 26.4374 20.4923 26.872C19.7051 27.5821 18.8595 27.9474 17.9554 27.9681C17.3076 27.9681 16.525 27.7869 15.6134 27.4186C14.6988 27.0518 13.8592 26.872 13.09 26.872C12.2848 26.872 11.4212 27.0518 10.4961 27.4186C9.57253 27.7869 8.82586 27.9798 8.25461 27.9975C7.38949 28.0344 6.52436 27.6602 5.66224 26.872C5.11198 26.4006 4.42378 25.5904 3.59764 24.4442C2.71303 23.223 1.98585 21.8014 1.4161 20.1853C0.805866 18.4367 0.5 16.7455 0.5 15.1073C0.5 13.232 0.91232 11.613 1.73846 10.2577C2.36331 9.19325 3.25662 8.30488 4.33232 7.67814C5.39306 7.05303 6.60396 6.71644 7.84079 6.70291C8.53049 6.70291 9.43459 6.9121 10.5546 7.32458C11.6746 7.73707 12.3943 7.94626 12.7077 7.94626C12.9446 7.94626 13.7407 7.70024 15.0961 7.21262C16.3751 6.76036 17.4546 6.57327 18.3392 6.64693C20.7381 6.83697 22.5389 7.76506 23.7368 9.43858C21.5928 10.7158 20.5327 12.5028 20.5537 14.7965C20.5717 16.5834 21.2329 18.0699 22.5284 19.2499C23.1011 19.7884 23.7693 20.2192 24.5 20.5212C24.3411 20.9735 24.1731 21.4051 23.9962 21.8205ZM18.4981 0.561277C18.4981 1.96078 17.9764 3.26896 16.9403 4.47843C15.6869 5.91624 14.1725 6.74858 12.5307 6.61746C12.5093 6.44148 12.4987 6.26437 12.4993 6.08712C12.4993 4.74212 13.093 3.30431 14.153 2.12725C14.6808 1.53209 15.3525 1.03564 16.1666 0.640827C16.9793 0.251912 17.747 0.0368292 18.4696 0C18.4891 0.188565 18.4981 0.375658 18.4981 0.561277Z" fill="white"/>
</svg>
