<svg width="1481" height="261" viewBox="0 0 1481 261" fill="none" xmlns="http://www.w3.org/2000/svg">
<path d="M73.2049 188.781L53.6425 196.94L62.166 201.959L56.4303 211.7L77.2103 204.258L67.4691 198.522L73.2049 188.781Z" stroke="#D1E7DD" stroke-miterlimit="10" stroke-linecap="round" stroke-linejoin="round"/>
<path d="M37.2441 177.445L51.8558 186.049L41.8183 203.096L27.2066 194.492L37.2441 177.445Z" stroke="#D1E7DD" stroke-miterlimit="10" stroke-linecap="round" stroke-linejoin="round"/>
<path d="M45.416 169.137L55.1572 174.872L49.4214 184.614L39.6803 178.878L45.416 169.137Z" stroke="#D1E7DD" stroke-miterlimit="10" stroke-linecap="round" stroke-linejoin="round"/>
<path d="M39.2238 240.921C45.9487 244.881 54.6102 242.639 58.5699 235.914C62.5296 229.189 60.288 220.528 53.5631 216.568C46.8383 212.608 38.1768 214.85 34.2171 221.575C30.2574 228.3 32.499 236.961 39.2238 240.921Z" stroke="#D1E7DD" stroke-miterlimit="10" stroke-linecap="round" stroke-linejoin="round"/>
<path d="M80.6465 209.559L90.3876 215.294L83.218 227.471L73.4768 221.735L80.6465 209.559Z" stroke="#D1E7DD" stroke-miterlimit="10" stroke-linecap="round" stroke-linejoin="round"/>
<path d="M87.3848 203.688L92.2553 206.555L87.9535 213.861L83.083 210.993L87.3848 203.688Z" stroke="#D1E7DD" stroke-miterlimit="10" stroke-linecap="round" stroke-linejoin="round"/>
<path d="M78.3488 224.604L74.047 231.91C66.9189 244.015 51.3298 248.05 39.224 240.922C27.1182 233.794 23.0838 218.205 30.2119 206.099L34.5137 198.793" stroke="#D1E7DD" stroke-miterlimit="10" stroke-linecap="round" stroke-linejoin="round"/>
<g clip-path="url(#clip0_2101_34406)">
<path d="M80.9711 169.002L116.761 150.727C117.793 150.2 119.264 150.187 120.661 150.628C122.057 151.069 123.257 151.924 123.799 152.987L160.173 224.22C160.729 225.309 160.729 226.778 160.274 228.153C159.818 229.529 158.942 230.705 157.878 231.249L122.088 249.524C121.024 250.068 119.539 250.051 118.141 249.589C116.741 249.127 115.558 248.26 115.048 247.262L78.6744 176.029C78.1341 174.971 78.1612 173.489 78.6339 172.09C79.1071 170.69 79.9818 169.508 80.9711 169.002Z" stroke="#D1E7DD"/>
<path fill-rule="evenodd" clip-rule="evenodd" d="M110.384 175.875C109.687 176.263 109.019 177.082 108.771 177.853C108.545 178.54 108.514 179.47 108.977 180.112C109.799 179.759 110.403 178.947 110.636 178.184C110.865 177.422 110.836 176.539 110.384 175.875ZM114.187 183.555C112.644 180.533 114.748 179.295 114.786 179.224C114.337 178.987 113.839 178.857 113.331 178.845C112.822 178.833 112.318 178.939 111.856 179.155C110.825 179.553 110.24 180.705 109.744 180.958C109.251 181.21 108.197 181.039 107.392 181.47C106.866 181.757 106.423 182.176 106.108 182.685C105.794 183.194 105.617 183.776 105.596 184.372C105.471 186.861 107.748 189.287 109.625 190.292C110.544 190.785 111.608 191.323 112.416 190.868C113.198 190.43 113.253 189.793 114.215 189.302C115.176 188.811 115.707 189.188 116.544 188.745C117.391 188.289 117.543 187.249 117.678 186.219C117.831 185.024 117.642 184.04 117.635 183.989C117.61 183.992 115.158 185.456 114.187 183.555Z" fill="#D1E7DD"/>
<path d="M91.0511 176.119C92.463 175.398 93.0259 173.674 92.3084 172.269C91.591 170.864 89.8648 170.31 88.4529 171.031C87.041 171.751 86.4781 173.475 87.1956 174.88C87.9131 176.285 89.6393 176.84 91.0511 176.119Z" fill="#A3CFBB"/>
<path d="M98.7211 172.205C100.133 171.484 100.696 169.76 99.9784 168.355C99.2609 166.95 97.5347 166.396 96.1228 167.116C94.711 167.837 94.148 169.561 94.8655 170.966C95.583 172.371 97.3092 172.926 98.7211 172.205Z" fill="white"/>
</g>
<g clip-path="url(#clip1_2101_34406)">
<path d="M210.751 246.618V203.285C210.751 201.561 210.066 199.908 208.847 198.689C207.628 197.47 205.975 196.785 204.251 196.785H169.584C167.86 196.785 166.207 197.47 164.988 198.689C163.769 199.908 163.084 201.561 163.084 203.285V246.618" stroke="#D1E7DD" stroke-miterlimit="10" stroke-linecap="round" stroke-linejoin="round"/>
<path d="M173.917 209.786C175.113 209.786 176.083 208.816 176.083 207.62C176.083 206.423 175.113 205.453 173.917 205.453C172.72 205.453 171.75 206.423 171.75 207.62C171.75 208.816 172.72 209.786 173.917 209.786Z" stroke="#D1E7DD" stroke-miterlimit="10" stroke-linecap="round" stroke-linejoin="round"/>
<path d="M182.585 209.786C183.781 209.786 184.751 208.816 184.751 207.62C184.751 206.423 183.781 205.453 182.585 205.453C181.388 205.453 180.418 206.423 180.418 207.62C180.418 208.816 181.388 209.786 182.585 209.786Z" stroke="#D1E7DD" stroke-miterlimit="10" stroke-linecap="round" stroke-linejoin="round"/>
<path d="M189.085 207.617C189.085 209.341 188.4 210.994 187.181 212.213C185.962 213.432 184.309 214.117 182.585 214.117H173.918C173.064 214.117 172.219 213.949 171.431 213.622C170.642 213.296 169.925 212.817 169.322 212.213C168.718 211.61 168.239 210.893 167.913 210.105C167.586 209.316 167.418 208.471 167.418 207.617C167.418 206.764 167.586 205.918 167.913 205.13C168.239 204.341 168.718 203.625 169.322 203.021C169.925 202.417 170.642 201.939 171.431 201.612C172.219 201.285 173.064 201.117 173.918 201.117H182.585C184.309 201.117 185.962 201.802 187.181 203.021C188.4 204.24 189.085 205.893 189.085 207.617Z" stroke="#D1E7DD" stroke-miterlimit="10" stroke-linecap="round" stroke-linejoin="round"/>
<path d="M194.501 208.702C195.1 208.702 195.585 208.217 195.585 207.618C195.585 207.02 195.1 206.535 194.501 206.535C193.903 206.535 193.418 207.02 193.418 207.618C193.418 208.217 193.903 208.702 194.501 208.702Z" stroke="#D1E7DD" stroke-miterlimit="10" stroke-linecap="round" stroke-linejoin="round"/>
<path d="M189.824 235.132C189.811 233.785 190.922 233.139 190.974 233.107C190.348 232.192 189.375 232.067 189.026 232.051C188.199 231.967 187.41 232.539 186.987 232.539C186.569 232.539 185.919 232.062 185.232 232.075C184.781 232.088 184.341 232.218 183.955 232.452C183.569 232.686 183.25 233.016 183.029 233.41C182.091 235.039 182.791 237.451 183.705 238.772C184.151 239.418 184.684 240.144 185.384 240.118C186.058 240.092 186.314 239.682 187.128 239.682C187.943 239.682 188.173 240.118 188.885 240.105C189.611 240.092 190.071 239.446 190.515 238.798C191.028 238.047 191.238 237.323 191.251 237.284C191.234 237.277 189.837 236.742 189.824 235.132Z" stroke="#D1E7DD" stroke-miterlimit="10" stroke-linejoin="round"/>
<path d="M188 229.286L188.977 228.309" stroke="#D1E7DD" stroke-miterlimit="10" stroke-linecap="round" stroke-linejoin="round"/>
</g>
<g clip-path="url(#clip2_2101_34406)">
<path d="M43.7199 111.589C40.9068 109.191 37.3755 108.318 34.2071 108.875L26.396 118.037C26.3487 121.252 27.7691 124.6 30.5823 126.999C32.4115 128.563 34.6694 129.54 37.0619 129.803L31.3397 136.515L34.7641 139.434L45.7122 126.593C49.3396 122.338 48.4491 115.621 43.7199 111.589ZM65.9787 130.566C68.7918 132.964 70.2123 136.313 70.1635 139.529L62.3524 148.691C59.184 149.248 55.6527 148.376 52.8396 145.977C51.0056 144.418 49.6837 142.344 49.0459 140.023L43.3237 146.735L39.8993 143.815L50.8488 130.972C54.4762 126.717 61.2495 126.534 65.9787 130.566Z" stroke="#D1E7DD" stroke-miterlimit="10" stroke-linecap="round" stroke-linejoin="round"/>
<path d="M30.6924 168.488L11.8581 152.431C10.0417 150.882 8.91484 148.676 8.72545 146.296C8.53606 143.917 9.29965 141.56 10.8482 139.743L21.0664 127.758L53.5984 155.493L43.3802 167.478C41.8316 169.295 39.6249 170.422 37.2455 170.611C34.8661 170.8 32.5089 170.037 30.6924 168.488Z" stroke="#D1E7DD" stroke-miterlimit="10" stroke-linecap="round" stroke-linejoin="round"/>
<path d="M35.2681 145.777L23.4364 147.517L27.717 151.166L23.3377 156.303L36.0255 155.293L30.8889 150.914L35.2681 145.777Z" stroke="#D1E7DD" stroke-miterlimit="10" stroke-linecap="round" stroke-linejoin="round"/>
<path d="M36.4717 115.755C36.1311 115.465 35.6891 115.321 35.243 115.357C34.7968 115.392 34.3831 115.604 34.0927 115.944C33.8023 116.285 33.6592 116.727 33.6947 117.173C33.7302 117.619 33.9415 118.033 34.282 118.323C34.6226 118.614 35.0646 118.757 35.5107 118.721C35.9569 118.686 36.3707 118.475 36.661 118.134C36.9514 117.793 37.0945 117.351 37.059 116.905C37.0235 116.459 36.8122 116.045 36.4717 115.755ZM63.0109 138.381C62.6703 138.091 62.2284 137.947 61.7822 137.983C61.3361 138.018 60.9223 138.23 60.6319 138.57C60.3416 138.911 60.1984 139.353 60.2339 139.799C60.2694 140.245 60.4807 140.659 60.8213 140.949C61.1619 141.24 61.6039 141.383 62.05 141.347C62.4961 141.312 62.9099 141.1 63.2003 140.76C63.4906 140.419 63.6338 139.977 63.5983 139.531C63.5628 139.085 63.3515 138.671 63.0109 138.381Z" fill="#D1E7DD"/>
</g>
<g clip-path="url(#clip3_2101_34406)">
<path d="M250.46 225.272L250.34 225.423L250.352 225.616C250.642 230.188 248.917 234.835 245.248 238.129C241.58 241.423 236.776 242.64 232.261 241.862L232.071 241.829L231.908 241.933L222.47 247.935L212.345 236.661L219.324 227.92L219.445 227.769L219.432 227.577C219.143 223.004 220.868 218.358 224.536 215.064C228.204 211.77 233.009 210.553 237.524 211.33L237.714 211.363L237.877 211.26L247.315 205.258L257.439 216.532L250.46 225.272ZM244.193 218.244C239.578 213.106 231.679 212.682 226.54 217.296C221.402 221.91 220.978 229.81 225.592 234.948C230.206 240.086 238.106 240.511 243.244 235.897C248.382 231.282 248.807 223.383 244.193 218.244Z" stroke="#D1E7DD"/>
</g>
<g clip-path="url(#clip4_2101_34406)">
<path d="M85.8828 120.278L86.0559 120.363L86.2416 120.31C90.6466 119.051 95.5541 119.745 99.5554 122.625C103.557 125.506 105.771 129.94 105.975 134.516L105.984 134.709L106.12 134.846L113.998 142.786L105.145 155.083L95.1164 150.131L94.9433 150.046L94.7576 150.099C90.3526 151.358 85.4451 150.665 81.4438 147.784C77.4425 144.904 75.2278 140.47 75.0239 135.893L75.0154 135.7L74.8793 135.563L67.001 127.624L75.8541 115.326L85.8828 120.278ZM80.3549 127.902C76.32 133.506 77.5917 141.314 83.1965 145.349C88.8014 149.384 96.6094 148.113 100.644 142.508C104.679 136.903 103.408 129.095 97.8027 125.06C92.1978 121.025 84.3898 122.297 80.3549 127.902Z" stroke="#D1E7DD"/>
</g>
<g clip-path="url(#clip5_2101_34406)">
<path d="M169.015 183.657L169.803 185.22C170.429 186.463 170.536 187.905 170.099 189.227C169.663 190.549 168.719 191.644 167.476 192.27C166.232 192.897 164.791 193.004 163.469 192.567C162.146 192.131 161.052 191.187 160.425 189.944L160.032 189.162C156.481 182.114 142.838 186.149 138.081 176.706C133.539 167.691 138.613 161.741 143.897 159.079C145.232 158.407 146.685 158.005 148.175 157.894C149.664 157.784 151.161 157.968 152.58 158.436C153.998 158.904 155.311 159.647 156.442 160.623C157.574 161.598 158.502 162.787 159.174 164.121" stroke="#D1E7DD" stroke-miterlimit="10" stroke-linecap="round" stroke-linejoin="round"/>
<path d="M154.529 164.501C153.108 163.434 151.368 162.879 149.592 162.926C147.816 162.973 146.108 163.62 144.746 164.76C143.384 165.9 142.447 167.468 142.088 169.208C141.729 170.948 141.969 172.758 142.769 174.344C146.312 181.377 157.652 178.604 160.014 183.293C161.358 185.962 164.32 184.063 164.32 184.063C164.32 184.063 166.403 182.361 165.484 180.537M148.991 172.19C148.721 170.536 148.932 168.839 149.599 167.301C150.265 165.762 151.358 164.448 152.749 163.513" stroke="#D1E7DD" stroke-miterlimit="10" stroke-linecap="round" stroke-linejoin="round"/>
<path d="M154.038 169.451C153.318 171.632 153.515 173.832 154.366 175.549L161.778 177.995C163.484 177.122 164.951 175.47 165.67 173.289C165.895 172.585 166.029 171.856 166.07 171.118L177.158 174.777C177.487 174.892 177.836 174.941 178.184 174.919C178.532 174.898 178.872 174.808 179.185 174.654C179.497 174.5 179.776 174.285 180.005 174.022C180.234 173.759 180.408 173.453 180.517 173.122C180.626 172.791 180.668 172.441 180.641 172.094C180.614 171.746 180.518 171.408 180.358 171.098C180.199 170.788 179.979 170.513 179.712 170.289C179.445 170.065 179.136 169.896 178.803 169.793L162.186 164.306C158.973 163.246 155.325 165.55 154.038 169.451Z" stroke="#D1E7DD" stroke-miterlimit="10" stroke-linecap="round" stroke-linejoin="round"/>
<path d="M159.194 170.968C158.883 171.125 158.647 171.398 158.538 171.729C158.429 172.06 158.455 172.42 158.612 172.731C158.769 173.042 159.042 173.278 159.373 173.387C159.703 173.496 160.064 173.469 160.375 173.312C160.686 173.156 160.921 172.882 161.031 172.552C161.14 172.221 161.113 171.861 160.956 171.55C160.8 171.239 160.526 171.003 160.195 170.894C159.865 170.785 159.505 170.811 159.194 170.968Z" fill="#D1E7DD"/>
</g>
<path d="M261.858 220.849C261.748 220.684 261.642 220.505 261.543 220.31C260.831 218.902 260.681 217.085 261.144 215.304C261.371 214.406 261.798 213.539 262.425 212.702C263.053 211.873 263.728 211.248 264.451 210.835C264.572 211.02 264.68 211.211 264.778 211.406C265.52 212.873 265.678 214.513 265.253 216.32C265.059 217.118 264.785 217.848 264.426 218.487M281.957 231.372C282.033 232.621 281.986 233.829 281.818 235.003C281.588 236.603 281.325 237.764 281.032 238.483C280.6 239.638 279.927 240.458 279.009 240.949C278.343 241.286 277.443 241.502 276.313 241.589C275.18 241.679 274.222 241.925 273.433 242.324C272.606 242.742 271.815 243.38 271.06 244.243C270.305 245.11 269.641 245.697 269.066 246.013C268.195 246.501 267.109 246.557 265.806 246.178C264.991 245.97 263.855 245.48 262.402 244.707C260.845 243.884 259.346 242.775 257.904 241.376C256.352 239.862 255.142 238.248 254.274 236.531C253.281 234.565 252.847 232.655 252.978 230.805C253.068 229.327 253.5 227.978 254.276 226.756C255.053 225.534 256.082 224.59 257.363 223.916C258.071 223.558 259.109 223.309 260.479 223.158C261.846 223.01 262.695 222.856 263.018 222.692C263.26 222.57 263.95 221.9 265.081 220.686C266.155 219.548 267.165 218.791 268.112 218.41C270.674 217.365 273.015 217.403 275.131 218.534C273.606 220.985 273.464 223.408 274.7 225.801C275.666 227.663 277.13 228.878 279.086 229.442C279.98 229.711 280.878 229.815 281.786 229.751C281.863 230.306 281.92 230.845 281.957 231.372Z" stroke="#D1E7DD" stroke-linecap="round" stroke-linejoin="round"/>
<path d="M203.079 186.444L221.922 209.788C222.962 211.077 224.763 211.35 225.944 210.397L235.937 202.331C237.117 201.378 237.231 199.56 236.19 198.271L217.348 174.927C216.308 173.637 214.507 173.365 213.326 174.318L203.333 182.383C202.152 183.336 202.039 185.154 203.079 186.444ZM201.654 187.594C199.92 185.445 200.109 182.416 202.077 180.827L212.07 172.761C214.038 171.173 217.039 171.627 218.773 173.776L237.616 197.121C239.35 199.27 239.161 202.299 237.193 203.888L227.2 211.953C225.232 213.542 222.231 213.087 220.496 210.938L201.654 187.594ZM226.995 204.408C226.301 203.549 226.377 202.337 227.164 201.702C227.95 201.067 229.152 201.249 229.845 202.108C230.538 202.967 230.463 204.179 229.676 204.814C228.889 205.449 227.688 205.267 226.995 204.408Z" fill="#D1E7DD"/>
<path d="M1407.55 72.4301L1427.11 64.2711L1418.59 59.2523L1424.32 49.5112L1403.54 56.9533L1413.28 62.689L1407.55 72.4301Z" stroke="#D1E7DD" stroke-miterlimit="10" stroke-linecap="round" stroke-linejoin="round"/>
<path d="M1443.52 83.7422L1428.9 75.1386L1438.94 58.0916L1453.55 66.6952L1443.52 83.7422Z" stroke="#D1E7DD" stroke-miterlimit="10" stroke-linecap="round" stroke-linejoin="round"/>
<path d="M1435.33 92.0625L1425.59 86.3268L1431.33 76.5856L1441.07 82.3214L1435.33 92.0625Z" stroke="#D1E7DD" stroke-miterlimit="10" stroke-linecap="round" stroke-linejoin="round"/>
<path d="M1441.53 20.2705C1434.81 16.3108 1426.15 18.5524 1422.19 25.2772C1418.23 32.0021 1420.47 40.6636 1427.19 44.6233C1433.92 48.583 1442.58 46.3414 1446.54 39.6166C1450.5 32.8917 1448.26 24.2302 1441.53 20.2705Z" stroke="#D1E7DD" stroke-miterlimit="10" stroke-linecap="round" stroke-linejoin="round"/>
<path d="M1400.11 51.6367L1390.36 45.901L1397.53 33.7246L1407.28 39.4603L1400.11 51.6367Z" stroke="#D1E7DD" stroke-miterlimit="10" stroke-linecap="round" stroke-linejoin="round"/>
<path d="M1393.36 57.5039L1388.49 54.636L1392.79 47.3302L1397.66 50.1981L1393.36 57.5039Z" stroke="#D1E7DD" stroke-miterlimit="10" stroke-linecap="round" stroke-linejoin="round"/>
<path d="M1402.41 36.5955L1406.71 29.2896C1413.84 17.1838 1429.43 13.1494 1441.53 20.2775C1453.64 27.4055 1457.67 42.9946 1450.54 55.1004L1446.24 62.4062" stroke="#D1E7DD" stroke-miterlimit="10" stroke-linecap="round" stroke-linejoin="round"/>
<g clip-path="url(#clip6_2101_34406)">
<path d="M1399.78 92.1967L1363.99 110.472C1362.96 110.999 1361.49 111.012 1360.09 110.571C1358.69 110.13 1357.49 109.275 1356.95 108.213L1320.58 36.9795C1320.02 35.8905 1320.02 34.4214 1320.48 33.0463C1320.93 31.6706 1321.81 30.4939 1322.87 29.9506L1358.66 11.6751C1359.73 11.1317 1361.21 11.1478 1362.61 11.6098C1364.01 12.0725 1365.19 12.9392 1365.7 13.9372L1402.08 85.1704C1402.62 86.2284 1402.59 87.7102 1402.12 89.1087C1401.64 90.5088 1400.77 91.6915 1399.78 92.1967Z" stroke="#D1E7DD"/>
<path fill-rule="evenodd" clip-rule="evenodd" d="M1370.37 85.3246C1371.07 84.9362 1371.73 84.1173 1371.98 83.3461C1372.21 82.6596 1372.24 81.7296 1371.77 81.0873C1370.95 81.4399 1370.35 82.2518 1370.12 83.0151C1369.89 83.7771 1369.92 84.6605 1370.37 85.3246ZM1366.56 77.6439C1368.11 80.6663 1366 81.9044 1365.97 81.9751C1366.41 82.2123 1366.91 82.3421 1367.42 82.3541C1367.93 82.3662 1368.43 82.2601 1368.9 82.0444C1369.93 81.6462 1370.51 80.4943 1371.01 80.241C1371.5 79.9891 1372.55 80.1597 1373.36 79.7293C1373.89 79.4422 1374.33 79.0234 1374.64 78.5144C1374.96 78.0054 1375.14 77.4237 1375.16 76.8269C1375.28 74.3383 1373 71.9118 1371.13 70.907C1370.21 70.4139 1369.14 69.8764 1368.34 70.3311C1367.55 70.7689 1367.5 71.4063 1366.54 71.8972C1365.58 72.388 1365.05 72.0112 1364.21 72.4547C1363.36 72.9098 1363.21 73.9498 1363.07 74.9806C1362.92 76.1753 1363.11 77.1593 1363.12 77.2104C1363.14 77.2076 1365.59 75.7434 1366.56 77.6439Z" fill="#D1E7DD"/>
<path d="M1389.7 85.0804C1388.29 85.8014 1387.73 87.5249 1388.44 88.9299C1389.16 90.335 1390.89 90.8896 1392.3 90.1687C1393.71 89.4477 1394.27 87.7242 1393.56 86.3192C1392.84 84.9141 1391.11 84.3595 1389.7 85.0804Z" fill="#A3CFBB"/>
<path d="M1382.03 88.9945C1380.62 89.7154 1380.06 91.4389 1380.77 92.844C1381.49 94.2491 1383.22 94.8037 1384.63 94.0827C1386.04 93.3618 1386.6 91.6383 1385.89 90.2332C1385.17 88.8281 1383.44 88.2735 1382.03 88.9945Z" fill="white"/>
</g>
<g clip-path="url(#clip7_2101_34406)">
<path d="M1270 14.5651V57.8984C1270 59.6223 1270.68 61.2756 1271.9 62.4946C1273.12 63.7136 1274.77 64.3984 1276.5 64.3984H1311.16C1312.89 64.3984 1314.54 63.7136 1315.76 62.4946C1316.98 61.2756 1317.66 59.6223 1317.66 57.8984V14.5651" stroke="#D1E7DD" stroke-miterlimit="10" stroke-linecap="round" stroke-linejoin="round"/>
<path d="M1306.83 51.3971C1305.63 51.3971 1304.66 52.3672 1304.66 53.5638C1304.66 54.7604 1305.63 55.7305 1306.83 55.7305C1308.03 55.7305 1309 54.7604 1309 53.5638C1309 52.3672 1308.03 51.3971 1306.83 51.3971Z" stroke="#D1E7DD" stroke-miterlimit="10" stroke-linecap="round" stroke-linejoin="round"/>
<path d="M1298.16 51.3971C1296.96 51.3971 1295.99 52.3672 1295.99 53.5638C1295.99 54.7604 1296.96 55.7305 1298.16 55.7305C1299.36 55.7305 1300.33 54.7604 1300.33 53.5638C1300.33 52.3672 1299.36 51.3971 1298.16 51.3971Z" stroke="#D1E7DD" stroke-miterlimit="10" stroke-linecap="round" stroke-linejoin="round"/>
<path d="M1291.66 53.5664C1291.66 51.8425 1292.35 50.1892 1293.57 48.9702C1294.78 47.7512 1296.44 47.0664 1298.16 47.0664H1306.83C1307.68 47.0664 1308.53 47.2345 1309.32 47.5612C1310.1 47.8878 1310.82 48.3666 1311.42 48.9702C1312.03 49.5738 1312.51 50.2903 1312.83 51.079C1313.16 51.8676 1313.33 52.7128 1313.33 53.5664C1313.33 54.42 1313.16 55.2652 1312.83 56.0538C1312.51 56.8425 1312.03 57.559 1311.42 58.1626C1310.82 58.7662 1310.1 59.245 1309.32 59.5716C1308.53 59.8983 1307.68 60.0664 1306.83 60.0664H1298.16C1296.44 60.0664 1294.78 59.3816 1293.57 58.1626C1292.35 56.9436 1291.66 55.2903 1291.66 53.5664Z" stroke="#D1E7DD" stroke-miterlimit="10" stroke-linecap="round" stroke-linejoin="round"/>
<path d="M1286.24 52.4818C1285.65 52.4818 1285.16 52.9668 1285.16 53.5651C1285.16 54.1634 1285.65 54.6484 1286.24 54.6484C1286.84 54.6484 1287.33 54.1634 1287.33 53.5651C1287.33 52.9668 1286.84 52.4818 1286.24 52.4818Z" stroke="#D1E7DD" stroke-miterlimit="10" stroke-linecap="round" stroke-linejoin="round"/>
<path d="M1290.92 26.0511C1290.94 27.3988 1289.82 28.0444 1289.77 28.0769C1290.4 28.9913 1291.37 29.1169 1291.72 29.1321C1292.55 29.2166 1293.34 28.6446 1293.76 28.6446C1294.18 28.6446 1294.83 29.1213 1295.51 29.1083C1295.97 29.0951 1296.41 28.9653 1296.79 28.7314C1297.18 28.4975 1297.5 28.1675 1297.72 27.7736C1298.66 26.1443 1297.96 23.7328 1297.04 22.4111C1296.59 21.7654 1296.06 21.0396 1295.36 21.0656C1294.69 21.0916 1294.43 21.5011 1293.62 21.5011C1292.8 21.5011 1292.57 21.0656 1291.86 21.0786C1291.13 21.0916 1290.68 21.7373 1290.23 22.3851C1289.72 23.1369 1289.51 23.8606 1289.49 23.8996C1289.51 23.9061 1290.91 24.4413 1290.92 26.0511Z" stroke="#D1E7DD" stroke-miterlimit="10" stroke-linejoin="round"/>
<path d="M1292.75 31.8978L1291.77 32.875" stroke="#D1E7DD" stroke-miterlimit="10" stroke-linecap="round" stroke-linejoin="round"/>
</g>
<g clip-path="url(#clip8_2101_34406)">
<path d="M1437.03 149.602C1439.85 152.001 1443.38 152.874 1446.55 152.317L1454.36 143.155C1454.41 139.94 1452.98 136.591 1450.17 134.193C1448.34 132.628 1446.08 131.651 1443.69 131.389L1449.41 124.677L1445.99 121.757L1435.04 134.599C1431.41 138.854 1432.3 145.571 1437.03 149.602ZM1414.78 130.626C1411.96 128.227 1410.54 124.879 1410.59 121.662L1418.4 112.5C1421.57 111.943 1425.1 112.816 1427.91 115.214C1429.75 116.773 1431.07 118.848 1431.71 121.169L1437.43 114.457L1440.85 117.376L1429.91 130.22C1426.28 134.474 1419.5 134.658 1414.78 130.626Z" stroke="#D1E7DD" stroke-miterlimit="10" stroke-linecap="round" stroke-linejoin="round"/>
<path d="M1450.06 92.7032L1468.9 108.76C1470.71 110.309 1471.84 112.516 1472.03 114.895C1472.22 117.274 1471.45 119.632 1469.91 121.448L1459.69 133.434L1427.16 105.699L1437.37 93.7131C1438.92 91.8967 1441.13 90.7698 1443.51 90.5804C1445.89 90.391 1448.25 91.1546 1450.06 92.7032Z" stroke="#D1E7DD" stroke-miterlimit="10" stroke-linecap="round" stroke-linejoin="round"/>
<path d="M1445.49 115.414L1457.32 113.675L1453.04 110.025L1457.42 104.889L1444.73 105.899L1449.86 110.278L1445.49 115.414Z" stroke="#D1E7DD" stroke-miterlimit="10" stroke-linecap="round" stroke-linejoin="round"/>
<path d="M1444.28 145.436C1444.62 145.727 1445.06 145.87 1445.51 145.834C1445.96 145.799 1446.37 145.588 1446.66 145.247C1446.95 144.907 1447.09 144.465 1447.06 144.018C1447.02 143.572 1446.81 143.158 1446.47 142.868C1446.13 142.578 1445.69 142.435 1445.24 142.47C1444.8 142.506 1444.38 142.717 1444.09 143.057C1443.8 143.398 1443.66 143.84 1443.69 144.286C1443.73 144.732 1443.94 145.146 1444.28 145.436ZM1417.74 122.81C1418.08 123.101 1418.53 123.244 1418.97 123.209C1419.42 123.173 1419.83 122.962 1420.12 122.621C1420.41 122.281 1420.56 121.839 1420.52 121.392C1420.48 120.946 1420.27 120.533 1419.93 120.242C1419.59 119.952 1419.15 119.809 1418.7 119.844C1418.26 119.88 1417.84 120.091 1417.55 120.432C1417.26 120.772 1417.12 121.214 1417.16 121.66C1417.19 122.106 1417.4 122.52 1417.74 122.81Z" fill="#D1E7DD"/>
</g>
<g clip-path="url(#clip9_2101_34406)">
<path d="M1230.28 35.919L1230.4 35.7682L1230.39 35.5755C1230.1 31.0033 1231.83 26.3568 1235.5 23.0627C1239.16 19.7686 1243.97 18.5515 1248.48 19.3293L1248.67 19.3621L1248.84 19.2585L1258.27 13.2566L1268.4 24.5309L1261.42 33.2713L1261.3 33.4222L1261.31 33.6149C1261.6 38.1871 1259.88 42.8335 1256.21 46.1276C1252.54 49.4218 1247.74 50.6389 1243.22 49.861L1243.03 49.8282L1242.87 49.9318L1233.43 55.9337L1223.31 44.6595L1230.28 35.919ZM1236.55 42.947C1241.17 48.0854 1249.07 48.5099 1254.2 43.8955C1259.34 39.2812 1259.77 31.3817 1255.15 26.2433C1250.54 21.105 1242.64 20.6805 1237.5 25.2948C1232.36 29.9091 1231.94 37.8086 1236.55 42.947Z" stroke="#D1E7DD"/>
</g>
<g clip-path="url(#clip10_2101_34406)">
<path d="M1394.86 140.925L1394.69 140.84L1394.5 140.893C1390.1 142.152 1385.19 141.458 1381.19 138.578C1377.19 135.697 1374.97 131.263 1374.77 126.687L1374.76 126.494L1374.62 126.357L1366.75 118.418L1375.6 106.12L1385.63 111.072L1385.8 111.157L1385.99 111.104C1390.39 109.845 1395.3 110.539 1399.3 113.419C1403.3 116.3 1405.52 120.733 1405.72 125.31L1405.73 125.503L1405.86 125.64L1413.74 133.579L1404.89 145.877L1394.86 140.925ZM1400.39 133.302C1404.42 127.697 1403.15 119.889 1397.55 115.854C1391.94 111.819 1384.13 113.091 1380.1 118.695C1376.06 124.3 1377.34 132.108 1382.94 136.143C1388.55 140.178 1396.35 138.906 1400.39 133.302Z" stroke="#D1E7DD"/>
</g>
<g clip-path="url(#clip11_2101_34406)">
<path d="M1311.72 77.5228L1310.94 75.9599C1310.31 74.7164 1310.2 73.275 1310.64 71.9527C1311.08 70.6305 1312.02 69.5357 1313.26 68.9093C1314.51 68.2829 1315.95 68.1761 1317.27 68.6124C1318.59 69.0488 1319.69 69.9925 1320.31 71.236L1320.71 72.0175C1324.26 79.0661 1337.9 75.0306 1342.66 84.4736C1347.2 93.4884 1342.12 99.4383 1336.84 102.1C1335.51 102.772 1334.05 103.175 1332.56 103.285C1331.07 103.396 1329.58 103.212 1328.16 102.743C1326.74 102.275 1325.43 101.532 1324.3 100.557C1323.16 99.5817 1322.24 98.393 1321.56 97.059" stroke="#D1E7DD" stroke-miterlimit="10" stroke-linecap="round" stroke-linejoin="round"/>
<path d="M1326.21 96.6785C1327.63 97.7452 1329.37 98.3002 1331.15 98.2533C1332.92 98.2063 1334.63 97.5602 1335.99 96.4198C1337.35 95.2795 1338.29 93.712 1338.65 91.972C1339.01 90.232 1338.77 88.4217 1337.97 86.8353C1334.43 79.8023 1323.09 82.5755 1320.72 77.8869C1319.38 75.2174 1316.42 77.1172 1316.42 77.1172C1316.42 77.1172 1314.34 78.8186 1315.25 80.6425M1331.75 88.9898C1332.02 90.6442 1331.81 92.3411 1331.14 93.8792C1330.47 95.4172 1329.38 96.7319 1327.99 97.6671" stroke="#D1E7DD" stroke-miterlimit="10" stroke-linecap="round" stroke-linejoin="round"/>
<path d="M1326.7 91.7284C1327.42 89.5474 1327.22 87.348 1326.37 85.6312L1318.96 83.185C1317.25 84.0581 1315.79 85.7099 1315.07 87.8909C1314.84 88.5947 1314.71 89.324 1314.67 90.0615L1303.58 86.4024C1303.25 86.2874 1302.9 86.2391 1302.55 86.2603C1302.21 86.2816 1301.87 86.3719 1301.55 86.526C1301.24 86.6801 1300.96 86.8949 1300.73 87.1579C1300.5 87.4209 1300.33 87.7269 1300.22 88.0579C1300.11 88.3889 1300.07 88.7383 1300.1 89.0858C1300.12 89.4333 1300.22 89.7719 1300.38 90.0818C1300.54 90.3917 1300.76 90.6667 1301.03 90.8909C1301.29 91.115 1301.6 91.2837 1301.93 91.3872L1318.55 96.8736C1321.77 97.9338 1325.41 95.6298 1326.7 91.7284Z" stroke="#D1E7DD" stroke-miterlimit="10" stroke-linecap="round" stroke-linejoin="round"/>
<path d="M1321.54 90.2116C1321.86 90.055 1322.09 89.7813 1322.2 89.4507C1322.31 89.1202 1322.28 88.7598 1322.13 88.4489C1321.97 88.138 1321.7 87.9021 1321.37 87.793C1321.03 87.6839 1320.67 87.7106 1320.36 87.8672C1320.05 88.0239 1319.82 88.2975 1319.71 88.6281C1319.6 88.9587 1319.63 89.319 1319.78 89.6299C1319.94 89.9408 1320.21 90.1767 1320.54 90.2858C1320.87 90.3949 1321.23 90.3682 1321.54 90.2116Z" fill="#D1E7DD"/>
</g>
<path d="M1218.89 40.3344C1219 40.4996 1219.1 40.6785 1219.2 40.8732C1219.91 42.2817 1220.07 44.0982 1219.6 45.8796C1219.38 46.7776 1218.95 47.645 1218.32 48.4815C1217.69 49.311 1217.02 49.9353 1216.29 50.3491C1216.17 50.1639 1216.07 49.9723 1215.97 49.7777C1215.23 48.3104 1215.07 46.6703 1215.49 44.8638C1215.69 44.0655 1215.96 43.3356 1216.32 42.6967M1198.79 29.8116C1198.71 28.563 1198.76 27.3548 1198.93 26.1807C1199.16 24.5801 1199.42 23.4193 1199.71 22.701C1200.15 21.546 1200.82 20.7258 1201.74 20.2349C1202.4 19.8981 1203.3 19.682 1204.43 19.595C1205.57 19.5045 1206.52 19.2587 1207.31 18.8601C1208.14 18.4421 1208.93 17.8036 1209.69 16.9401C1210.44 16.074 1211.11 15.4862 1211.68 15.1704C1212.55 14.6825 1213.64 14.627 1214.94 15.0052C1215.76 15.2139 1216.89 15.704 1218.34 16.4766C1219.9 17.2994 1221.4 18.4086 1222.84 19.8077C1224.39 21.3218 1225.6 22.9358 1226.47 24.6522C1227.47 26.6183 1227.9 28.5282 1227.77 30.3781C1227.68 31.8566 1227.25 33.2055 1226.47 34.4277C1225.69 35.6499 1224.66 36.5932 1223.38 37.2678C1222.68 37.6252 1221.64 37.8745 1220.27 38.0258C1218.9 38.174 1218.05 38.3277 1217.73 38.4911C1217.49 38.6133 1216.8 39.2839 1215.67 40.4974C1214.59 41.6355 1213.58 42.3922 1212.63 42.774C1210.07 43.8189 1207.73 43.7806 1205.62 42.6492C1207.14 40.199 1207.28 37.7752 1206.05 35.3829C1205.08 33.521 1203.62 32.3055 1201.66 31.7414C1200.77 31.4722 1199.87 31.3689 1198.96 31.4326C1198.88 30.8778 1198.83 30.3384 1198.79 29.8116Z" stroke="#D1E7DD" stroke-linecap="round" stroke-linejoin="round"/>
<path d="M1277.67 74.7401L1258.83 51.3955C1257.79 50.1062 1255.99 49.8336 1254.81 50.7866L1244.82 58.8524C1243.63 59.8054 1243.52 61.6231 1244.56 62.9124L1263.4 86.257C1264.44 87.5463 1266.25 87.8189 1267.43 86.8659L1277.42 78.8001C1278.6 77.8471 1278.71 76.0294 1277.67 74.7401ZM1279.1 73.5897C1280.83 75.7385 1280.64 78.7681 1278.68 80.3564L1268.68 88.4222C1266.71 90.0105 1263.71 89.5562 1261.98 87.4074L1243.14 64.0628C1241.4 61.914 1241.59 58.8844 1243.56 57.2961L1253.55 49.2303C1255.52 47.642 1258.52 48.0963 1260.26 50.2451L1279.1 73.5897ZM1253.76 56.7752C1254.45 57.6343 1254.38 58.8469 1253.59 59.4819C1252.8 60.1169 1251.6 59.935 1250.91 59.0759C1250.21 58.2169 1250.29 57.0043 1251.08 56.3693C1251.86 55.7342 1253.06 55.9161 1253.76 56.7752Z" fill="#D1E7DD"/>
<defs>
<clipPath id="clip0_2101_34406">
<rect width="51.6677" height="91.412" fill="white" transform="translate(75.6309 171.168) rotate(-27.0503)"/>
</clipPath>
<clipPath id="clip1_2101_34406">
<rect width="52" height="52" fill="white" transform="translate(162 195.703)"/>
</clipPath>
<clipPath id="clip2_2101_34406">
<rect width="54" height="54" fill="white" transform="translate(35.0332 102.703) rotate(40.4491)"/>
</clipPath>
<clipPath id="clip3_2101_34406">
<rect width="48" height="48" fill="white" transform="translate(236.713 192.703) rotate(48.0759)"/>
</clipPath>
<clipPath id="clip4_2101_34406">
<rect width="48" height="48" fill="white" transform="translate(57 140.66) rotate(-54.2503)"/>
</clipPath>
<clipPath id="clip5_2101_34406">
<rect width="42" height="42" fill="white" transform="translate(131 164.598) rotate(-26.737)"/>
</clipPath>
<clipPath id="clip6_2101_34406">
<rect width="51.6677" height="91.412" fill="white" transform="translate(1405.12 90.0312) rotate(152.95)"/>
</clipPath>
<clipPath id="clip7_2101_34406">
<rect width="52" height="52" fill="white" transform="matrix(-1 0 0 -1 1318.75 65.4805)"/>
</clipPath>
<clipPath id="clip8_2101_34406">
<rect width="54" height="54" fill="white" transform="translate(1445.72 158.488) rotate(-139.551)"/>
</clipPath>
<clipPath id="clip9_2101_34406">
<rect width="48" height="48" fill="white" transform="translate(1244.03 68.4883) rotate(-131.924)"/>
</clipPath>
<clipPath id="clip10_2101_34406">
<rect width="48" height="48" fill="white" transform="translate(1423.74 120.543) rotate(125.75)"/>
</clipPath>
<clipPath id="clip11_2101_34406">
<rect width="42" height="42" fill="white" transform="translate(1349.74 96.582) rotate(153.263)"/>
</clipPath>
</defs>
</svg>
